<svg xmlns="http://www.w3.org/2000/svg" width="256" height="256" viewBox="0 0 100 100"><rect width="100" height="100" rx="20" fill="#ee7600"></rect><path d="M71.38 52.50L71.38 84.19L61.01 84.19L61.01 54.31Q61.01 48.68 58.75 45.91Q56.48 43.14 51.56 43.14L51.56 43.14Q45.06 43.14 42.00 47.03Q38.95 50.92 38.95 60.06L38.95 60.06L38.95 84.19L28.62 84.19L28.62 15.81L38.95 15.81L38.95 33.17Q38.95 37.34 38.42 42.09L38.42 42.09L39.08 42.09Q41.19 38.57 44.95 36.64Q48.70 34.71 53.71 34.71L53.71 34.71Q71.38 34.71 71.38 52.50L71.38 52.50Z" fill="#ffffff"></path></svg>
